<svg width="320" height="320" version="1.1" xmlns="http://www.w3.org/2000/svg" desc="Created with imagetracer.js version 1.2.6" ><path fill="rgb(0,0,0)" stroke="rgb(0,0,0)" stroke-width="1" opacity="0" d="M 0 0 L 320 0 L 320 320 L 0 320 L 0 0 Z M 225 40 L 225 45 Q 218 43 220 50 L 215 50 L 215 55 L 210 55 L 210 60 L 205 60 L 205 65 L 200 65 L 200 70 L 195 70 L 195 75 L 190 75 L 190 80 L 185 80 L 185 85 L 180 85 L 180 90 L 175 90 L 175 95 L 170 95 L 170 81 L 175 80 L 175 50 L 170 50 Q 173 58 165 55 L 165 60 L 160 60 L 160 65 L 155 65 L 155 70 L 150 70 L 150 75 L 145 75 L 145 80 L 140 80 L 140 85 L 135 85 L 135 90 L 125 90 L 125 76 L 120 75 L 120 60 Q 113 63 115 55 L 110 55 L 110 50 Q 103 48 105 55 L 100 55 L 100 60 L 95 60 L 95 70 L 90 70 L 90 80 L 85 80 L 85 90 Q 78 88 80 95 L 75 95 L 75 85 L 70 85 L 70 75 L 65 75 L 65 65 L 60 65 L 60 55 Q 53 58 55 50 L 36 50 L 35 55 L 30 55 L 30 75 Q 38 73 35 80 L 40 80 L 40 85 L 45 85 L 45 95 L 50 95 L 50 105 L 55 105 L 55 115 L 60 115 L 60 125 Q 68 123 65 130 Q 58 133 60 125 L 55 125 L 55 120 L 46 120 L 45 115 L 35 115 L 35 105 Q 28 108 30 100 L 11 100 L 10 105 L 5 105 L 5 135 L 10 135 L 11 140 L 25 140 L 25 145 L 35 145 L 35 150 L 45 150 Q 43 158 50 155 L 50 160 L 55 160 L 55 165 L 60 165 L 60 170 L 70 170 Q 68 178 75 175 L 75 180 L 80 180 Q 83 188 75 185 L 75 190 L 70 190 L 70 200 L 65 201 L 65 210 L 60 210 L 60 220 L 55 220 L 55 230 L 50 230 L 50 240 L 45 240 L 45 250 L 40 250 L 40 265 L 45 265 L 45 270 L 65 270 L 65 265 L 70 265 L 70 240 L 75 240 L 75 230 L 80 230 L 80 220 Q 88 223 85 215 L 90 215 L 90 210 L 95 211 L 95 295 L 100 295 L 100 300 L 130 300 L 130 295 L 135 295 L 135 280 Q 128 283 130 275 L 125 275 L 125 265 L 130 265 L 130 255 L 135 255 L 135 245 L 150 245 L 150 255 L 155 255 L 155 265 L 160 265 L 160 295 L 165 295 L 165 305 Q 173 308 170 300 Q 178 298 175 305 L 185 305 L 185 300 L 195 300 L 196 305 L 205 305 Q 203 313 210 310 L 210 315 L 220 315 L 221 310 L 240 310 Q 238 303 245 305 L 245 295 L 250 295 L 250 280 L 245 280 L 245 275 L 240 275 L 240 255 L 235 255 L 235 245 L 230 245 L 230 235 L 225 235 L 225 225 L 220 225 L 220 215 L 215 215 L 215 200 L 210 200 L 210 185 L 215 185 L 215 175 L 210 175 L 210 165 L 215 165 L 215 145 L 220 145 L 220 125 Q 213 128 215 120 L 210 120 L 210 100 L 215 100 L 215 90 L 220 90 L 220 76 L 225 75 L 225 60 L 230 60 L 230 41 L 225 40 Z " /><path fill="rgb(0,0,0)" stroke="rgb(0,0,0)" stroke-width="1" opacity="0" d="M 190 210 L 195 210 L 195 220 L 200 220 L 200 230 L 205 230 L 205 239.5 L 210 240 L 210 250 L 205 250 L 205 245 L 200 245 L 200 240 L 195 240 Q 197.5 232.5 190 235 L 190 210 Z " /><path fill="rgb(156,131,123)" stroke="rgb(156,131,123)" stroke-width="1" opacity="1" d="M 225 40 L 230 40.5 L 230 60 L 225 60 L 225 70 L 220 70 L 220 60 L 225 59.5 L 225 50 L 220 50 L 220 55 L 215 55 L 215 60 L 210 60 Q 212.5 67.5 205 65 L 205 70 L 200 70 L 200 65 L 205 65 L 205 60 L 210 60 L 210 55 L 215 55 L 215 50 L 220 50 Q 217.5 42.5 225 45 L 225 40 Z " /><path fill="rgb(156,131,123)" stroke="rgb(156,131,123)" stroke-width="1" opacity="1" d="M 105 50 L 110 50 L 110 55 L 115 55 Q 112.5 62.5 120 60 L 120 75 L 115 75 L 115 65 L 110 65 L 110 55 L 105 55 Q 107.5 62.5 100 60 L 100 70 L 95 70 Q 97.5 77.5 90 75 Q 87.5 67.5 95 70 L 95 60 L 100 60 L 100 55 Q 107.5 57.5 105 50 Z " /><path fill="rgb(156,131,123)" stroke="rgb(156,131,123)" stroke-width="1" opacity="1" d="M 170 50 L 175 50.5 L 175 75 L 170 75 L 170 60 L 165 60 L 165 65 L 160 65 L 160 70 L 155 70 Q 157.5 77.5 150 75 L 150 70 L 155 70 L 155 65 L 160 65 L 160 60 L 165 60 L 165 55 Q 172.5 57.5 170 50 Z " /><path fill="rgb(156,131,123)" stroke="rgb(156,131,123)" stroke-width="1" opacity="1" d="M 113 103 L 115 103.5 L 115 119.5 L 118 120 L 118 123 Q 121 122 120 125 L 137.5 125 L 138 128 L 135 128 Q 136 131 133 130 L 133 133 Q 128.8 132 129.5 135 L 115 135 Q 116 132 113 133 L 113 130 L 110 130 Q 111 127 108 128 L 108 125 L 105 125 L 105 110 L 108 110 Q 107 107 110 108 L 110 105 Q 114.1 106.3 113 103 Z " /><path fill="rgb(156,131,123)" stroke="rgb(156,131,123)" stroke-width="1" opacity="1" d="M 170 103 L 173 103 Q 172 106 175 105 L 175 108 L 178 108 Q 177 111 180 110 L 180 125 Q 176.7 123.9 178 128 L 175 128 Q 176 131 173 130 L 173 133 Q 168.9 131.7 170 135 L 155 135 Q 156 132 153 133 L 153 130 L 150 130 Q 151 127 148 128 L 148 125 L 164.5 125 Q 163.8 122 168 123 Q 167 118.8 170 119.5 L 170 103 Z " /><path fill="rgb(156,131,123)" stroke="rgb(156,131,123)" stroke-width="1" opacity="1" d="M 75 185 Q 82.5 182.5 80 190 L 75 190 L 75 200 L 70 200 L 70 210 L 65 210 L 65 220 L 60 220 L 60 230 L 55 230 L 55 240 Q 47.5 237.5 50 245 L 64.5 245 L 65 240 L 70 240 L 70 230 L 75 230 L 75 220 L 80 219.5 L 80 205 L 95 205 L 95 210 L 100 210.5 L 100 295 L 130 295 L 130 280 L 110.5 280 L 110 275 L 120 275 L 120 265 L 125 265 L 125 255 L 130 255 L 130 245 Q 137.5 247.5 135 240 L 150 240 Q 147.5 247.5 155 245 L 155 255 L 160 255 L 160 265 L 165 265.5 L 165 295 L 195 295 L 195 280 L 175.5 280 L 175 275 L 184.5 275 L 185 274.5 L 185 210 L 190 210 L 190.5 205 L 205 205 L 205 217.5 L 203 218 Q 204.5 213.5 200 215 Q 197.5 222.5 205 220 L 205 230 L 210 230 L 210 240 L 215 240 L 215 250 L 230 250 Q 232.5 242.5 225 245 L 225 235 L 220 235 L 220 225 L 215 225 L 215 215 L 210 215 L 210 200.5 L 205 200 L 205 190 L 210 190 L 210 200 L 215 200.5 L 215 215 L 220 215 L 220 225 L 225 225 L 225 235 L 230 235 L 230 245 L 235 245 L 235 255 L 240 255 L 240 274.5 L 245 275 L 245 280 L 250 280 L 250 295 L 245 295 L 245 305 Q 237.5 302.5 240 310 L 220.5 310 L 220 315 L 210 315 L 210 310 Q 202.5 312.5 205 305 L 195.5 305 L 195 300 L 185 300 L 185 305 L 175 305 Q 177.5 297.5 170 300 Q 172.5 307.5 165 305 L 165 295 L 160 294.5 L 160 265 L 155 265 L 155 255 L 150 255 L 150 245 L 135 245 L 135 255 L 130 255 L 130 265 L 125 265 L 125 275 L 130 275 Q 127.5 282.5 135 280 L 135 295 L 130 295 L 129.5 300 L 100 300 L 100 295 L 95 294.5 L 95 210.5 L 90 210 L 90 215 L 85 215 Q 87.5 222.5 80 220 L 80 229.5 L 75 230 L 75 240 L 70 240 L 70 265 L 65 265 L 64.5 270 L 45 270 L 45 265 L 40 264.5 L 40 250 L 45 250 L 45 240 L 50 240 L 50 230 L 55 230 L 55 220 L 60 220 L 60 210 L 65 210 L 65 200 L 70 200 L 70 190 Q 77.5 192.5 75 185 Z M 190 210 L 190 260 L 195 260 Q 198 268 190 265 L 190 275 Q 198 273 195 280 L 200 280 L 200 295 L 195 295 L 195 300 L 205 300 Q 203 308 210 305 L 210 310 L 220 310 Q 223 303 215 305 L 215 300 Q 223 298 220 305 L 240 305 L 240 295 L 245 295 L 245 280 Q 238 283 240 275 L 235 275 L 235 270 L 230 270 Q 228 263 235 265 L 235 255 L 215 255 L 215 270 L 220 270 L 220 275 Q 213 278 215 270 L 210 270 L 210 241 L 205 240 L 205 230 L 200 230 L 200 220 L 195 220 L 195 210 L 190 210 Z M 45 250 L 45 265 L 65 265 L 65 250 L 45 250 Z " /><path fill="rgb(156,131,123)" stroke="rgb(156,131,123)" stroke-width="1" opacity="1" d="M 200 270 L 205 270 L 205 275 L 210 275 L 210 280 L 215 280 L 215 285 Q 222.5 282.5 220 290 L 215 290 L 215 285 L 210 285 L 210 280 L 205 280 L 205 275 Q 197.5 277.5 200 270 Z " /><path fill="rgb(115,89,38)" stroke="rgb(115,89,38)" stroke-width="1" opacity="1" d="M 200 70 Q 207.5 67.5 205 75 L 215 75 Q 212.5 67.5 220 70 Q 222.5 77.5 215 75 L 215 85 L 210 85 L 210 100 L 205 100.5 L 205 120 L 210 120 L 210 128 Q 207 127 208 130 L 205 130 L 205 133 Q 202 132 203 135 L 200 135 L 199.5 138 L 100 138 L 100 135 Q 97 136 98 133 L 95 133 L 95 130 Q 92 131 93 128 L 90 128 L 90 120 L 85 119.5 L 85 90 L 90 90 L 90 80 L 95 80 Q 92.5 72.5 100 75 L 100 80 L 115 80 Q 112.5 72.5 120 75 L 120 90 L 125 90 L 125 100 L 130 100 L 130 95 L 135 95 L 135 90 L 140 90 L 140 85 L 145 85 L 145 80 L 150 80 Q 147.5 72.5 155 75 L 155 80 L 165 80 Q 162.5 72.5 170 75 L 170 80 L 165 80.5 L 165 100 L 175 100 L 175 95 L 180 95 L 180 90 L 185 90 L 185 85 L 190 85 L 190 80 L 195 80 Q 192.5 72.5 200 75 L 200 70 Z M 113 103 Q 114 106 110 105 L 110 108 Q 107 107 108 110 L 105 110 L 105 125 L 108 125 L 108 128 Q 111 127 110 130 L 113 130 L 113 133 Q 116 132 115 135 L 130 135 Q 129 132 133 133 L 133 130 Q 136 131 135 128 L 138 128 L 138 125 L 135 125 Q 136 122 133 123 L 133 120 L 130 120 Q 131 117 128 118 L 128 115 L 125 115 Q 126 112 123 113 L 123 110 L 120 110 Q 121 107 118 108 L 118 105 L 115 105 Q 116 102 113 103 Z M 170 103 Q 171 106 168 105 L 168 108 L 165 108 Q 166 111 163 110 L 163 113 L 160 113 Q 161 116 158 115 L 158 118 L 155 118 Q 156 121 153 120 L 153 123 L 150 123 Q 151 126 148 125 L 148 128 Q 151 127 150 130 L 153 130 L 153 133 Q 156 132 155 135 L 170 135 Q 169 132 173 133 L 173 130 Q 176 131 175 128 L 178 128 Q 177 124 180 125 L 180 110 Q 177 111 178 108 L 175 108 L 175 105 Q 172 106 173 103 L 170 103 Z " /><path fill="rgb(115,89,38)" stroke="rgb(115,89,38)" stroke-width="1" opacity="1" d="M 230 280 L 240 280 L 240 290 L 235 290 L 235 295 Q 227.5 292.5 230 300 L 220 300 L 220 290 L 225 290 L 225 285 Q 232.5 287.5 230 280 Z " /><path fill="rgb(224,224,224)" stroke="rgb(224,224,224)" stroke-width="1" opacity="1" d="M 85 190 L 187.5 190 L 188 193 Q 191.1 192.3 190.5 195 L 205 195 L 205 200 L 210 200.5 L 210 215 L 215 215 L 215 225 L 220 225 L 220 235 L 225 235 L 225 245 Q 232.5 242.5 230 250 L 215 250 L 215 240 L 210 240 L 210 230 L 205 230 L 205 220 Q 197.5 222.5 200 215 L 203 215 Q 201.7 219.1 205 218 L 205 205 L 190 205 L 190 210 L 185 210.5 L 185 274.5 L 184.5 275 L 175 275 L 175 280 L 195 280 L 195 295 L 165 295 L 165 265.5 L 160 265 L 160 255 L 155 255 L 155 245 L 150 245 L 149.5 240 L 135 240 Q 137.5 247.5 130 245 L 130 255 L 125 255 L 125 265 L 120 265 L 120 275 L 110 275 L 110 280 L 130 280 L 130 295 L 100 295 L 100 210.5 L 95 210 L 94.5 205 L 80 205 L 80 219.5 L 75 220 L 75 230 L 70 230 L 70 240 L 65 240 L 64.5 245 L 50 245 Q 47.5 237.5 55 240 L 55 230 L 60 230 L 60 220 L 65 220 L 65 210 L 70 210 L 70 200 L 75 200 L 75 193 L 84.5 193 L 85 190 Z " /><path fill="rgb(224,224,224)" stroke="rgb(224,224,224)" stroke-width="1" opacity="1" d="M 45 250 L 65 250 L 65 265 L 45 265 L 45 250 Z " /><path fill="rgb(224,224,224)" stroke="rgb(224,224,224)" stroke-width="1" opacity="1" d="M 215 255 L 235 255 L 235 265 Q 227.5 267.5 230 260 L 220 260 L 220 270 L 215 270 L 215 255 Z " /><path fill="rgb(183,186,222)" stroke="rgb(183,186,222)" stroke-width="1" opacity="1" d="M 80 130 L 85 130 L 85 140 L 90 140 L 90 145 L 95 145 L 95 150 L 100 150 L 100 155 L 105 155 L 105 160 L 110 160 L 110 165 L 115 165 L 115 170 L 120 170 Q 117.5 177.5 125 175 L 125 180 L 85.5 180 L 85 175 L 75 175 L 75 170 L 80 170 L 80 155.5 L 85 155 L 85 145 L 80 145 L 80 130 Z " /><path fill="rgb(183,186,222)" stroke="rgb(183,186,222)" stroke-width="1" opacity="1" d="M 205 140 L 215 140 L 215 145 L 210 145 L 210 164.5 L 205 165 L 205 175 Q 212.5 172.5 210 180 L 200 180 L 200 175 L 195 175 L 195 170 L 190 170 L 190 165 L 185 165 L 185 160 L 180 160 L 180 155 L 175 155 L 175 150 Q 167.5 152.5 170 145 L 204.5 145 L 205 140 Z " /><path fill="rgb(183,186,222)" stroke="rgb(183,186,222)" stroke-width="1" opacity="1" d="M 80 185 L 189.5 185 L 190.5 190 L 205 190 L 205 195 L 190.5 195 Q 191.1 192.3 188 193 L 187.5 190 L 85 190 L 84.5 193 L 75 193 L 75 190 L 80 190 L 80 185 Z " /><path fill="rgb(75,98,217)" stroke="rgb(75,98,217)" stroke-width="1" opacity="1" d="M 35 50 L 54.5 50 L 55 55 L 60 55 L 60 65 L 65 65 L 65 75 L 70 75 L 70 85 L 75 85 L 75 95 L 80 95.5 L 80 120 L 85 120 L 85 130 L 90 130 L 90 135 Q 97.5 132.5 95 140 L 205 140 L 205 135 L 215 135 L 215 125 L 220 125 L 220 144.5 L 215 145.5 L 215 164.5 L 210 165 L 210 175 L 215 175 L 215 185 L 210 185 L 209.5 190 L 190 190 L 189.5 185 L 80 185 L 80 180 L 75 180 L 75 175 Q 67.5 177.5 70 170 L 60 170 L 60 165 L 55 165 L 55 160 L 50 160 L 50 155 Q 42.5 157.5 45 150 L 35 150 L 35 145 L 25 145 L 24.5 140 L 10.5 140 L 10 135 L 5 135 L 5 105 L 10 105 L 10.5 100 L 30 100 Q 27.5 107.5 35 105 L 35 115 L 45 115 L 45 120 L 55 120 Q 52.5 127.5 60 125 L 60 115 L 55 115 L 55 105 L 50 105 L 50 95.5 L 45 95 L 45 85 L 40 85 L 40 80 L 35 80 Q 37.5 72.5 30 75 L 30 55 Q 37.5 57.5 35 50 Z M 60 125 Q 58 133 65 130 Q 68 123 60 125 Z M 80 130 L 80 145 L 85 145 L 85 155 L 80 156 L 80 170 L 75 170 L 75 175 L 85 175 L 86 180 L 125 180 L 125 175 Q 118 178 120 170 L 115 170 L 115 165 L 110 165 L 110 160 L 105 160 L 105 155 L 100 155 L 100 150 L 95 150 L 95 145 L 90 145 L 90 140 L 85 140 L 85 130 L 80 130 Z M 205 140 L 205 145 L 170 145 Q 168 153 175 150 L 175 155 L 180 155 L 180 160 L 185 160 L 185 165 L 190 165 L 190 170 L 195 170 L 195 175 L 200 175 L 200 180 L 210 180 Q 213 173 205 175 L 205 165 L 210 165 L 210 145 L 215 145 L 215 140 L 205 140 Z " /><path fill="rgb(77,33,16)" stroke="rgb(77,33,16)" stroke-width="1" opacity="1" d="M 220 50 L 225 50 L 225 60 L 220 60 L 220 70 Q 227.5 67.5 225 75 L 220 75 L 220 90 L 215 90 L 215 100 L 210 100 L 210 120 L 215 120 L 215 135 L 205 135 L 204.5 140 L 95 140 L 95 135 L 90 135 Q 92.5 127.5 85 130 L 85 120 L 80 119.5 L 80 90 L 85 90 L 85 80 L 90 80 L 90 75 L 95 75 Q 92.5 67.5 100 70 L 100 60 L 105 60 Q 102.5 52.5 110 55 L 110 65 L 115 65.5 L 115 80 L 100.5 80 L 100 75 L 95 75 Q 97.5 82.5 90 80 L 90 90 L 85 90.5 L 85 120 L 90 120 L 90 128 L 93 128 Q 92 131 95 130 L 95 133 L 98 133 L 100.5 138 L 200 138 L 200 135 L 203 135 Q 202 132 205 133 L 205 130 L 208 130 Q 207 127 210 128 L 210 120 L 205 119.5 L 205 100 L 210 100 L 210 85.5 L 215 85 L 215 75 L 205 75 L 205 65 L 210 65 L 210 60 L 215 60 L 215 55 Q 222.5 57.5 220 50 Z M 215 70 Q 213 78 220 75 Q 223 68 215 70 Z " /><path fill="rgb(77,33,16)" stroke="rgb(77,33,16)" stroke-width="1" opacity="1" d="M 165 60 L 170 60 L 170 74.5 L 175 75 L 175 80 L 170 80 L 170 95 L 175 95 L 175 90 L 180 90 L 180 85 L 185 85 L 185 80 L 190 80 L 190 75 Q 197.5 77.5 195 70 L 200 70 L 200 75 L 195 75 L 195 80 L 190 80 L 190 85 L 185 85 L 185 90 L 180 90 Q 182.5 97.5 175 95 L 175 100 L 165 100 L 165 80 L 155 80 L 155 70 L 160 70 L 160 65 Q 167.5 67.5 165 60 Z M 165 75 Q 163 83 170 80 Q 173 73 165 75 Z " /><path fill="rgb(77,33,16)" stroke="rgb(77,33,16)" stroke-width="1" opacity="1" d="M 120 75 L 125 75 L 125 90 L 135 90 L 135 85 L 140 85 L 140 80 L 145 80 Q 142.5 72.5 150 75 L 150 80 L 145 80 L 145 85 L 140 85 L 140 90 L 135 90 L 135 95 L 130 95 Q 132.5 102.5 125 100 L 125 90 L 120 89.5 L 120 75 Z " /><path fill="rgb(77,33,16)" stroke="rgb(77,33,16)" stroke-width="1" opacity="1" d="M 115 105 L 118 105 L 118 108 Q 121 107 120 110 L 123 110 L 123 113 Q 126 112 125 115 L 128 115 L 128 118 Q 131 117 130 120 L 133 120 L 133 123 Q 136 122 135 125 L 120 125 Q 121 122 118 123 L 118 120 L 115 119.5 L 115 105 Z " /><path fill="rgb(77,33,16)" stroke="rgb(77,33,16)" stroke-width="1" opacity="1" d="M 168 105 L 170 105.5 L 170 120 L 168 120 L 168 123 Q 163.8 122 164.5 125 L 150 125 Q 148.9 121.7 153 123 L 153 120 Q 156 121 155 118 L 158 118 L 158 115 Q 161 116 160 113 L 163 113 L 163 110 Q 166 111 165 108 L 168 108 L 168 105 Z " /><path fill="rgb(77,33,16)" stroke="rgb(77,33,16)" stroke-width="1" opacity="1" d="M 190 235 L 195 235 L 195 240 L 200 240 L 200 245 L 205 245 Q 202.5 252.5 210 250 L 210 270 L 215 270 Q 212.5 277.5 220 275 L 220 260 L 230 260 L 230 270 L 235 270 L 235 275 L 240 275 Q 237.5 282.5 245 280 L 245 295 L 240 295 L 240 305 L 220.5 305 L 220 310 L 210 310 L 210 305 Q 202.5 307.5 205 300 L 195 300 L 195 295 L 200 295 L 200 280 L 195 280 Q 197.5 272.5 190 275 L 190 265 Q 197.5 267.5 195 260 L 190 259.5 L 190 235 Z M 200 270 Q 198 278 205 275 Q 208 268 200 270 Z M 205 275 Q 203 283 210 280 Q 213 273 205 275 Z M 210 280 Q 208 288 215 285 Q 218 278 210 280 Z M 230 280 Q 233 288 225 285 L 225 290 L 220 290 L 220 300 L 230 300 Q 228 293 235 295 L 235 290 L 240 290 L 240 280 L 230 280 Z M 215 285 Q 213 293 220 290 Q 223 283 215 285 Z M 215 300 Q 213 308 220 305 Q 223 298 215 300 Z " /></svg>